<mxfile host="app.diagrams.net" modified="2023-09-25T07:00:01.665Z" agent="Mozilla/5.0 (Windows NT 10.0; Win64; x64) AppleWebKit/537.36 (KHTML, like Gecko) Chrome/117.0.0.0 Safari/537.36" etag="s6RLng1fUovoYxfIg0nI" version="21.8.2" type="github">
  <diagram name="第 1 页" id="JEW84IEkXDqigqjq7rxe">
    <mxGraphModel dx="1434" dy="1927" grid="1" gridSize="10" guides="1" tooltips="1" connect="1" arrows="1" fold="1" page="1" pageScale="1" pageWidth="827" pageHeight="1169" math="0" shadow="0">
      <root>
        <mxCell id="0" />
        <mxCell id="1" parent="0" />
        <mxCell id="Idv3CIi146qRPTqe8h8x-1" value="" style="whiteSpace=wrap;html=1;aspect=fixed;" vertex="1" parent="1">
          <mxGeometry x="380" y="-100" width="630" height="630" as="geometry" />
        </mxCell>
        <mxCell id="Idv3CIi146qRPTqe8h8x-2" value="学生" style="shape=umlActor;verticalLabelPosition=bottom;verticalAlign=top;html=1;outlineConnect=0;" vertex="1" parent="1">
          <mxGeometry x="260" y="-50" width="30" height="60" as="geometry" />
        </mxCell>
        <mxCell id="Idv3CIi146qRPTqe8h8x-5" value="" style="endArrow=none;html=1;rounded=0;" edge="1" parent="1" target="Idv3CIi146qRPTqe8h8x-6">
          <mxGeometry width="50" height="50" relative="1" as="geometry">
            <mxPoint x="290" y="-30" as="sourcePoint" />
            <mxPoint x="340" y="-80" as="targetPoint" />
          </mxGeometry>
        </mxCell>
        <mxCell id="Idv3CIi146qRPTqe8h8x-6" value="成绩查询" style="ellipse;whiteSpace=wrap;html=1;" vertex="1" parent="1">
          <mxGeometry x="410" y="-93" width="120" height="33" as="geometry" />
        </mxCell>
        <mxCell id="Idv3CIi146qRPTqe8h8x-7" value="用户信息修改" style="ellipse;whiteSpace=wrap;html=1;" vertex="1" parent="1">
          <mxGeometry x="460" y="-50" width="120" height="33" as="geometry" />
        </mxCell>
        <mxCell id="Idv3CIi146qRPTqe8h8x-8" value="学生登录" style="ellipse;whiteSpace=wrap;html=1;" vertex="1" parent="1">
          <mxGeometry x="430" y="-10" width="120" height="33" as="geometry" />
        </mxCell>
        <mxCell id="Idv3CIi146qRPTqe8h8x-9" value="" style="endArrow=none;html=1;rounded=0;entryX=0.067;entryY=0.727;entryDx=0;entryDy=0;entryPerimeter=0;" edge="1" parent="1" target="Idv3CIi146qRPTqe8h8x-7">
          <mxGeometry width="50" height="50" relative="1" as="geometry">
            <mxPoint x="290" y="-30" as="sourcePoint" />
            <mxPoint x="340" y="-80" as="targetPoint" />
          </mxGeometry>
        </mxCell>
        <mxCell id="Idv3CIi146qRPTqe8h8x-10" value="" style="endArrow=none;html=1;rounded=0;entryX=0;entryY=0.5;entryDx=0;entryDy=0;" edge="1" parent="1" target="Idv3CIi146qRPTqe8h8x-8">
          <mxGeometry width="50" height="50" relative="1" as="geometry">
            <mxPoint x="300" y="-30" as="sourcePoint" />
            <mxPoint x="680" y="170" as="targetPoint" />
          </mxGeometry>
        </mxCell>
      </root>
    </mxGraphModel>
  </diagram>
</mxfile>
